<svg xmlns="http://www.w3.org/2000/svg" width="3840" height="600"><path d="M2085,306L2070,442L2222,328Z" fill="#14538b" stroke="#14538b" stroke-width="1.51"/><path d="M2070,442L2243,446L2222,328Z" fill="#16548e" stroke="#16548e" stroke-width="1.51"/><path d="M2199,151L2100,156L2085,306Z" fill="#124d85" stroke="#124d85" stroke-width="1.51"/><path d="M2085,306L1894,303L2070,442Z" fill="#15528a" stroke="#15528a" stroke-width="1.51"/><path d="M2070,442L2106,611L2243,446Z" fill="#185793" stroke="#185793" stroke-width="1.51"/><path d="M2222,328L2199,151L2085,306Z" fill="#134f87" stroke="#134f87" stroke-width="1.51"/><path d="M2383,280L2199,151L2222,328Z" fill="#135088" stroke="#135088" stroke-width="1.51"/><path d="M2243,446L2389,420L2222,328Z" fill="#16548f" stroke="#16548f" stroke-width="1.51"/><path d="M2361,618L2389,420L2243,446Z" fill="#185894" stroke="#185894" stroke-width="1.51"/><path d="M2389,420L2383,280L2222,328Z" fill="#16538c" stroke="#16538c" stroke-width="1.51"/><path d="M1929,143L1894,303L2085,306Z" fill="#124e85" stroke="#124e85" stroke-width="1.51"/><path d="M2070,442L1924,620L2106,611Z" fill="#1a5995" stroke="#1a5995" stroke-width="1.51"/><path d="M2106,611L2251,627L2243,446Z" fill="#1a5b97" stroke="#1a5b97" stroke-width="1.51"/><path d="M1894,303L1887,464L2070,442Z" fill="#15538c" stroke="#15538c" stroke-width="1.51"/><path d="M2100,156L1929,143L2085,306Z" fill="#124d84" stroke="#124d84" stroke-width="1.51"/><path d="M2092,21L1929,143L2100,156Z" fill="#0f4980" stroke="#0f4980" stroke-width="1.51"/><path d="M2251,627L2361,618L2243,446Z" fill="#1a5b98" stroke="#1a5b98" stroke-width="1.51"/><path d="M1887,464L1924,620L2070,442Z" fill="#185792" stroke="#185792" stroke-width="1.51"/><path d="M2106,611L2217,751L2251,627Z" fill="#1b5c99" stroke="#1b5c99" stroke-width="1.51"/><path d="M2383,280L2379,158L2199,151Z" fill="#124e86" stroke="#124e86" stroke-width="1.51"/><path d="M2544,154L2379,158L2383,280Z" fill="#124e87" stroke="#124e87" stroke-width="1.51"/><path d="M2199,151L2092,21L2100,156Z" fill="#0f4a81" stroke="#0f4a81" stroke-width="1.51"/><path d="M2254,-22L2092,21L2199,151Z" fill="#0e487e" stroke="#0e487e" stroke-width="1.51"/><path d="M2251,627L2384,785L2361,618Z" fill="#1c5d9a" stroke="#1c5d9a" stroke-width="1.51"/><path d="M2074,787L2217,751L2106,611Z" fill="#1b5c98" stroke="#1b5c98" stroke-width="1.51"/><path d="M1894,303L1736,433L1887,464Z" fill="#15528b" stroke="#15528b" stroke-width="1.51"/><path d="M1887,464L1750,597L1924,620Z" fill="#195994" stroke="#195994" stroke-width="1.51"/><path d="M1765,168L1764,291L1894,303Z" fill="#124e85" stroke="#124e85" stroke-width="1.51"/><path d="M1764,291L1736,433L1894,303Z" fill="#145188" stroke="#145188" stroke-width="1.51"/><path d="M1924,620L2074,787L2106,611Z" fill="#1b5b98" stroke="#1b5b98" stroke-width="1.51"/><path d="M1949,795L2074,787L1924,620Z" fill="#1a5b97" stroke="#1a5b97" stroke-width="1.51"/><path d="M2389,420L2553,285L2383,280Z" fill="#15538c" stroke="#15538c" stroke-width="1.51"/><path d="M2538,575L2551,442L2389,420Z" fill="#195894" stroke="#195894" stroke-width="1.51"/><path d="M2092,21L1954,9L1929,143Z" fill="#0d487d" stroke="#0d487d" stroke-width="1.51"/><path d="M1929,143L1765,168L1894,303Z" fill="#114c83" stroke="#114c83" stroke-width="1.51"/><path d="M2379,158L2254,-22L2199,151Z" fill="#0f4a82" stroke="#0f4a82" stroke-width="1.51"/><path d="M2092,21L2078,-146L1954,9Z" fill="#0c467b" stroke="#0c467b" stroke-width="1.51"/><path d="M2551,442L2553,285L2389,420Z" fill="#17558f" stroke="#17558f" stroke-width="1.51"/><path d="M2379,158L2410,-9L2254,-22Z" fill="#0e497f" stroke="#0e497f" stroke-width="1.51"/><path d="M1746,25L1765,168L1929,143Z" fill="#0e497f" stroke="#0e497f" stroke-width="1.51"/><path d="M1582,333L1592,468L1736,433Z" fill="#14528b" stroke="#14528b" stroke-width="1.51"/><path d="M2361,618L2538,575L2389,420Z" fill="#1a5b97" stroke="#1a5b97" stroke-width="1.51"/><path d="M2547,768L2538,575L2361,618Z" fill="#1c5d9b" stroke="#1c5d9b" stroke-width="1.51"/><path d="M1736,433L1750,597L1887,464Z" fill="#175690" stroke="#175690" stroke-width="1.51"/><path d="M1800,778L1949,795L1924,620Z" fill="#1a5b97" stroke="#1a5b97" stroke-width="1.51"/><path d="M2553,285L2544,154L2383,280Z" fill="#145089" stroke="#145089" stroke-width="1.51"/><path d="M2217,751L2384,785L2251,627Z" fill="#1b5c9a" stroke="#1b5c9a" stroke-width="1.51"/><path d="M2074,787L2384,785L2217,751Z" fill="#1b5c99" stroke="#1b5c99" stroke-width="1.51"/><path d="M1949,795L2384,785L2074,787Z" fill="#1b5c98" stroke="#1b5c98" stroke-width="1.51"/><path d="M2502,0L2410,-9L2379,158Z" fill="#0e4a80" stroke="#0e4a80" stroke-width="1.51"/><path d="M2551,442L2667,292L2553,285Z" fill="#16548e" stroke="#16548e" stroke-width="1.51"/><path d="M2553,285L2667,292L2544,154Z" fill="#14518a" stroke="#14518a" stroke-width="1.51"/><path d="M2538,575L2657,456L2551,442Z" fill="#195996" stroke="#195996" stroke-width="1.51"/><path d="M2668,606L2657,456L2538,575Z" fill="#1b5c99" stroke="#1b5c99" stroke-width="1.51"/><path d="M2659,113L2502,0L2544,154Z" fill="#104b83" stroke="#104b83" stroke-width="1.51"/><path d="M2544,154L2502,0L2379,158Z" fill="#104b83" stroke="#104b83" stroke-width="1.51"/><path d="M1750,597L1800,778L1924,620Z" fill="#1a5a96" stroke="#1a5a96" stroke-width="1.51"/><path d="M2254,-22L2078,-146L2092,21Z" fill="#0c477b" stroke="#0c477b" stroke-width="1.51"/><path d="M1954,9L1746,25L1929,143Z" fill="#0d477c" stroke="#0d477c" stroke-width="1.51"/><path d="M2205,-191L2078,-146L2254,-22Z" fill="#0d477c" stroke="#0d477c" stroke-width="1.51"/><path d="M2205,-191L2254,-22L2407,-175Z" fill="#0d477d" stroke="#0d477d" stroke-width="1.51"/><path d="M2657,456L2667,292L2551,442Z" fill="#175691" stroke="#175691" stroke-width="1.51"/><path d="M1582,333L1736,433L1764,291Z" fill="#135088" stroke="#135088" stroke-width="1.51"/><path d="M1783,-178L1746,25L1954,9Z" fill="#0b4579" stroke="#0b4579" stroke-width="1.51"/><path d="M2078,-146L1954,-142L1954,9Z" fill="#0c467a" stroke="#0c467a" stroke-width="1.51"/><path d="M1736,433L1592,468L1750,597Z" fill="#175590" stroke="#175590" stroke-width="1.51"/><path d="M1750,597L1617,794L1800,778Z" fill="#1a5a96" stroke="#1a5a96" stroke-width="1.51"/><path d="M1582,333L1764,291L1585,140Z" fill="#114d84" stroke="#114d84" stroke-width="1.51"/><path d="M2384,785L2547,768L2361,618Z" fill="#1c5d9b" stroke="#1c5d9b" stroke-width="1.51"/><path d="M1585,140L1764,291L1765,168Z" fill="#104b82" stroke="#104b82" stroke-width="1.51"/><path d="M2547,768L2668,606L2538,575Z" fill="#1c5e9c" stroke="#1c5e9c" stroke-width="1.51"/><path d="M2657,456L2835,474L2667,292Z" fill="#185692" stroke="#185692" stroke-width="1.51"/><path d="M2407,-175L2254,-22L2410,-9Z" fill="#0d487d" stroke="#0d487d" stroke-width="1.51"/><path d="M2078,-146L2205,-191L1954,-142Z" fill="#0c467b" stroke="#0c467b" stroke-width="1.51"/><path d="M2667,292L2659,113L2544,154Z" fill="#134f88" stroke="#134f88" stroke-width="1.51"/><path d="M1592,468L1594,583L1750,597Z" fill="#185792" stroke="#185792" stroke-width="1.51"/><path d="M1455,581L1594,583L1592,468Z" fill="#175692" stroke="#175692" stroke-width="1.51"/><path d="M1746,25L1585,140L1765,168Z" fill="#0e487e" stroke="#0e487e" stroke-width="1.51"/><path d="M1625,-29L1585,140L1746,25Z" fill="#0c467a" stroke="#0c467a" stroke-width="1.51"/><path d="M2544,-138L2410,-9L2502,0Z" fill="#0e487e" stroke="#0e487e" stroke-width="1.51"/><path d="M2544,-138L2407,-175L2410,-9Z" fill="#0d487e" stroke="#0d487e" stroke-width="1.51"/><path d="M2659,113L2674,17L2502,0Z" fill="#0f4a81" stroke="#0f4a81" stroke-width="1.51"/><path d="M2845,136L2674,17L2659,113Z" fill="#104c85" stroke="#104c85" stroke-width="1.51"/><path d="M2845,136L2659,113L2667,292Z" fill="#134f89" stroke="#134f89" stroke-width="1.51"/><path d="M2674,17L2544,-138L2502,0Z" fill="#0e497f" stroke="#0e497f" stroke-width="1.51"/><path d="M1645,-163L1625,-29L1746,25Z" fill="#0a4478" stroke="#0a4478" stroke-width="1.51"/><path d="M1954,-142L1783,-178L1954,9Z" fill="#0c467a" stroke="#0c467a" stroke-width="1.51"/><path d="M2205,-191L1783,-178L1954,-142Z" fill="#0c467a" stroke="#0c467a" stroke-width="1.51"/><path d="M1594,583L1617,794L1750,597Z" fill="#195995" stroke="#195995" stroke-width="1.51"/><path d="M1800,778L1617,794L1949,795Z" fill="#1a5a96" stroke="#1a5a96" stroke-width="1.51"/><path d="M2668,606L2835,474L2657,456Z" fill="#1a5a98" stroke="#1a5a98" stroke-width="1.51"/><path d="M2547,768L2719,751L2668,606Z" fill="#1d5e9c" stroke="#1d5e9c" stroke-width="1.51"/><path d="M2837,794L2719,751L2547,768Z" fill="#1d5e9d" stroke="#1d5e9d" stroke-width="1.51"/><path d="M1582,333L1432,472L1592,468Z" fill="#14518b" stroke="#14518b" stroke-width="1.51"/><path d="M1594,583L1482,780L1617,794Z" fill="#195995" stroke="#195995" stroke-width="1.51"/><path d="M1585,140L1462,296L1582,333Z" fill="#114c83" stroke="#114c83" stroke-width="1.51"/><path d="M1438,118L1462,296L1585,140Z" fill="#0f4980" stroke="#0f4980" stroke-width="1.51"/><path d="M2840,587L2835,474L2668,606Z" fill="#1c5d9b" stroke="#1c5d9b" stroke-width="1.51"/><path d="M1432,472L1455,581L1592,468Z" fill="#16548f" stroke="#16548f" stroke-width="1.51"/><path d="M1462,296L1432,472L1582,333Z" fill="#134f88" stroke="#134f88" stroke-width="1.51"/><path d="M2719,751L2840,587L2668,606Z" fill="#1d5f9d" stroke="#1d5f9d" stroke-width="1.51"/><path d="M2835,474L2866,304L2667,292Z" fill="#175591" stroke="#175591" stroke-width="1.51"/><path d="M2998,438L2866,304L2835,474Z" fill="#185794" stroke="#185794" stroke-width="1.51"/><path d="M1477,25L1438,118L1585,140Z" fill="#0d467c" stroke="#0d467c" stroke-width="1.51"/><path d="M1783,-178L1645,-163L1746,25Z" fill="#0b4579" stroke="#0b4579" stroke-width="1.51"/><path d="M2866,304L2845,136L2667,292Z" fill="#15528c" stroke="#15528c" stroke-width="1.51"/><path d="M2674,17L2675,-169L2544,-138Z" fill="#0e497f" stroke="#0e497f" stroke-width="1.51"/><path d="M1477,25L1585,140L1625,-29Z" fill="#0c457a" stroke="#0c457a" stroke-width="1.51"/><path d="M1271,318L1325,487L1432,472Z" fill="#14508a" stroke="#14508a" stroke-width="1.51"/><path d="M1492,-194L1477,25L1625,-29Z" fill="#0a4478" stroke="#0a4478" stroke-width="1.51"/><path d="M2833,-18L2675,-169L2674,17Z" fill="#0e4a80" stroke="#0e4a80" stroke-width="1.51"/><path d="M2544,-138L2675,-169L2407,-175Z" fill="#0e497f" stroke="#0e497f" stroke-width="1.51"/><path d="M2407,-175L2675,-169L2205,-191Z" fill="#0d487e" stroke="#0d487e" stroke-width="1.51"/><path d="M1316,739L1482,780L1455,581Z" fill="#185894" stroke="#185894" stroke-width="1.51"/><path d="M1455,581L1482,780L1594,583Z" fill="#195894" stroke="#195894" stroke-width="1.51"/><path d="M2845,136L2833,-18L2674,17Z" fill="#0f4b82" stroke="#0f4b82" stroke-width="1.51"/><path d="M2982,138L2833,-18L2845,136Z" fill="#114d85" stroke="#114d85" stroke-width="1.51"/><path d="M3000,593L2998,438L2835,474Z" fill="#1b5b99" stroke="#1b5b99" stroke-width="1.51"/><path d="M2719,751L2837,794L2840,587Z" fill="#1d5f9e" stroke="#1d5f9e" stroke-width="1.51"/><path d="M2384,785L2837,794L2547,768Z" fill="#1c5e9c" stroke="#1c5e9c" stroke-width="1.51"/><path d="M1949,795L2837,794L2384,785Z" fill="#1c5d9a" stroke="#1c5d9a" stroke-width="1.51"/><path d="M1432,472L1325,487L1455,581Z" fill="#16548f" stroke="#16548f" stroke-width="1.51"/><path d="M1271,318L1432,472L1462,296Z" fill="#124f87" stroke="#124f87" stroke-width="1.51"/><path d="M2866,304L2982,138L2845,136Z" fill="#14508a" stroke="#14508a" stroke-width="1.51"/><path d="M3000,593L2835,474L2840,587Z" fill="#1c5d9b" stroke="#1c5d9b" stroke-width="1.51"/><path d="M2998,438L2995,284L2866,304Z" fill="#185691" stroke="#185691" stroke-width="1.51"/><path d="M2993,-155L2824,-157L2833,-18Z" fill="#0f4a81" stroke="#0f4a81" stroke-width="1.51"/><path d="M2833,-18L2824,-157L2675,-169Z" fill="#0e4a80" stroke="#0e4a80" stroke-width="1.51"/><path d="M1272,128L1271,318L1462,296Z" fill="#104a81" stroke="#104a81" stroke-width="1.51"/><path d="M1319,-4L1272,128L1438,118Z" fill="#0c457a" stroke="#0c457a" stroke-width="1.51"/><path d="M1645,-163L1492,-194L1625,-29Z" fill="#0a4478" stroke="#0a4478" stroke-width="1.51"/><path d="M1783,-178L1492,-194L1645,-163Z" fill="#0a4478" stroke="#0a4478" stroke-width="1.51"/><path d="M2205,-191L1492,-194L1783,-178Z" fill="#0b4579" stroke="#0b4579" stroke-width="1.51"/><path d="M1325,487L1300,593L1455,581Z" fill="#175691" stroke="#175691" stroke-width="1.51"/><path d="M2995,284L2982,138L2866,304Z" fill="#15538d" stroke="#15538d" stroke-width="1.51"/><path d="M1272,128L1462,296L1438,118Z" fill="#0f487f" stroke="#0f487f" stroke-width="1.51"/><path d="M1325,487L1157,466L1300,593Z" fill="#16538e" stroke="#16538e" stroke-width="1.51"/><path d="M2969,767L3000,593L2840,587Z" fill="#1d609f" stroke="#1d609f" stroke-width="1.51"/><path d="M1300,593L1316,739L1455,581Z" fill="#185894" stroke="#185894" stroke-width="1.51"/><path d="M1319,-4L1438,118L1477,25Z" fill="#0a4479" stroke="#0a4479" stroke-width="1.51"/><path d="M1492,-194L1319,-4L1477,25Z" fill="#0a4377" stroke="#0a4377" stroke-width="1.51"/><path d="M2837,794L2969,767L2840,587Z" fill="#1d5f9e" stroke="#1d5f9e" stroke-width="1.51"/><path d="M2982,138L3028,2L2833,-18Z" fill="#104c84" stroke="#104c84" stroke-width="1.51"/><path d="M3138,121L3028,2L2982,138Z" fill="#114e87" stroke="#114e87" stroke-width="1.51"/><path d="M3138,121L2982,138L2995,284Z" fill="#14518b" stroke="#14518b" stroke-width="1.51"/><path d="M3121,443L2995,284L2998,438Z" fill="#185894" stroke="#185894" stroke-width="1.51"/><path d="M3000,593L3121,443L2998,438Z" fill="#1b5c9a" stroke="#1b5c9a" stroke-width="1.51"/><path d="M3126,601L3121,443L3000,593Z" fill="#1d5e9d" stroke="#1d5e9d" stroke-width="1.51"/><path d="M1300,593L1143,628L1316,739Z" fill="#185793" stroke="#185793" stroke-width="1.51"/><path d="M1271,318L1157,466L1325,487Z" fill="#134f89" stroke="#134f89" stroke-width="1.51"/><path d="M1144,283L1157,466L1271,318Z" fill="#124d86" stroke="#124d86" stroke-width="1.51"/><path d="M1143,178L1144,283L1271,318Z" fill="#104a81" stroke="#104a81" stroke-width="1.51"/><path d="M1143,178L1271,318L1272,128Z" fill="#0f487f" stroke="#0f487f" stroke-width="1.51"/><path d="M3028,2L2993,-155L2833,-18Z" fill="#0f4b82" stroke="#0f4b82" stroke-width="1.51"/><path d="M2824,-157L3146,-195L2675,-169Z" fill="#0f4a81" stroke="#0f4a81" stroke-width="1.51"/><path d="M2675,-169L3146,-195L2205,-191Z" fill="#0e4980" stroke="#0e4980" stroke-width="1.51"/><path d="M3160,738L3126,601L3000,593Z" fill="#1e61a0" stroke="#1e61a0" stroke-width="1.51"/><path d="M1152,16L1143,178L1272,128Z" fill="#0c457b" stroke="#0c457b" stroke-width="1.51"/><path d="M1492,-194L1289,-158L1319,-4Z" fill="#094377" stroke="#094377" stroke-width="1.51"/><path d="M1152,16L1272,128L1319,-4Z" fill="#0a4378" stroke="#0a4378" stroke-width="1.51"/><path d="M3121,443L3167,310L2995,284Z" fill="#185793" stroke="#185793" stroke-width="1.51"/><path d="M3028,2L3146,-195L2993,-155Z" fill="#0f4b83" stroke="#0f4b83" stroke-width="1.51"/><path d="M3290,280L3167,310L3312,437Z" fill="#195894" stroke="#195894" stroke-width="1.51"/><path d="M3167,310L3138,121L2995,284Z" fill="#16538e" stroke="#16538e" stroke-width="1.51"/><path d="M1157,466L1143,628L1300,593Z" fill="#175591" stroke="#175591" stroke-width="1.51"/><path d="M987,482L1143,628L1157,466Z" fill="#15538e" stroke="#15538e" stroke-width="1.51"/><path d="M987,482L1157,466L983,288Z" fill="#124e87" stroke="#124e87" stroke-width="1.51"/><path d="M1316,739L1163,772L1482,780Z" fill="#185793" stroke="#185793" stroke-width="1.51"/><path d="M1482,780L1163,772L1617,794Z" fill="#195894" stroke="#195894" stroke-width="1.51"/><path d="M1143,628L1163,772L1316,739Z" fill="#185793" stroke="#185793" stroke-width="1.51"/><path d="M1289,-158L1152,16L1319,-4Z" fill="#094276" stroke="#094276" stroke-width="1.51"/><path d="M3312,437L3167,310L3121,443Z" fill="#1a5996" stroke="#1a5996" stroke-width="1.51"/><path d="M2969,767L3160,738L3000,593Z" fill="#1e60a0" stroke="#1e60a0" stroke-width="1.51"/><path d="M3277,746L3160,738L2969,767Z" fill="#1e61a0" stroke="#1e61a0" stroke-width="1.51"/><path d="M3138,121L3179,8L3028,2Z" fill="#114d85" stroke="#114d85" stroke-width="1.51"/><path d="M3271,-40L3179,8L3336,151Z" fill="#114e87" stroke="#114e87" stroke-width="1.51"/><path d="M3290,280L3138,121L3167,310Z" fill="#16548f" stroke="#16548f" stroke-width="1.51"/><path d="M1289,-158L1132,-155L1152,16Z" fill="#094276" stroke="#094276" stroke-width="1.51"/><path d="M1007,13L1006,177L1143,178Z" fill="#0c447b" stroke="#0c447b" stroke-width="1.51"/><path d="M1143,178L1006,177L1144,283Z" fill="#0e487f" stroke="#0e487f" stroke-width="1.51"/><path d="M1492,-194L1132,-155L1289,-158Z" fill="#094276" stroke="#094276" stroke-width="1.51"/><path d="M3312,437L3121,443L3303,580Z" fill="#1c5d9b" stroke="#1c5d9b" stroke-width="1.51"/><path d="M1007,13L1143,178L1152,16Z" fill="#0a4379" stroke="#0a4379" stroke-width="1.51"/><path d="M1143,628L1000,755L1163,772Z" fill="#175692" stroke="#175692" stroke-width="1.51"/><path d="M3179,8L3146,-195L3028,2Z" fill="#104c83" stroke="#104c83" stroke-width="1.51"/><path d="M2993,-155L3146,-195L2824,-157Z" fill="#0f4b82" stroke="#0f4b82" stroke-width="1.51"/><path d="M2205,-191L3146,-195L1492,-194Z" fill="#0d477d" stroke="#0d477d" stroke-width="1.51"/><path d="M3271,-40L3146,-195L3179,8Z" fill="#104c84" stroke="#104c84" stroke-width="1.51"/><path d="M983,288L1157,466L1144,283Z" fill="#114d85" stroke="#114d85" stroke-width="1.51"/><path d="M1006,177L983,288L1144,283Z" fill="#0f4980" stroke="#0f4980" stroke-width="1.51"/><path d="M3303,580L3121,443L3126,601Z" fill="#1d5f9d" stroke="#1d5f9d" stroke-width="1.51"/><path d="M987,482L995,611L1143,628Z" fill="#175590" stroke="#175590" stroke-width="1.51"/><path d="M3160,738L3303,580L3126,601Z" fill="#1f61a1" stroke="#1f61a1" stroke-width="1.51"/><path d="M3160,738L3277,746L3303,580Z" fill="#1f62a1" stroke="#1f62a1" stroke-width="1.51"/><path d="M2837,794L3277,746L2969,767Z" fill="#1e60a0" stroke="#1e60a0" stroke-width="1.51"/><path d="M812,292L864,466L983,288Z" fill="#104b83" stroke="#104b83" stroke-width="1.51"/><path d="M1132,-155L1007,13L1152,16Z" fill="#084175" stroke="#084175" stroke-width="1.51"/><path d="M844,620L1000,755L995,611Z" fill="#175591" stroke="#175591" stroke-width="1.51"/><path d="M995,611L1000,755L1143,628Z" fill="#175692" stroke="#175692" stroke-width="1.51"/><path d="M3336,151L3138,121L3290,280Z" fill="#15528d" stroke="#15528d" stroke-width="1.51"/><path d="M3336,151L3179,8L3138,121Z" fill="#135089" stroke="#135089" stroke-width="1.51"/><path d="M3465,291L3290,280L3312,437Z" fill="#195894" stroke="#195894" stroke-width="1.51"/><path d="M3439,118L3336,151L3465,291Z" fill="#16548f" stroke="#16548f" stroke-width="1.51"/><path d="M1132,-155L986,-131L1007,13Z" fill="#084175" stroke="#084175" stroke-width="1.51"/><path d="M842,122L983,288L1006,177Z" fill="#0d467d" stroke="#0d467d" stroke-width="1.51"/><path d="M987,482L844,620L995,611Z" fill="#165490" stroke="#165490" stroke-width="1.51"/><path d="M983,288L864,466L987,482Z" fill="#124e87" stroke="#124e87" stroke-width="1.51"/><path d="M842,122L1006,177L1007,13Z" fill="#0b4379" stroke="#0b4379" stroke-width="1.51"/><path d="M3465,-171L3319,-185L3271,-40Z" fill="#114d85" stroke="#114d85" stroke-width="1.51"/><path d="M3271,-40L3319,-185L3146,-195Z" fill="#104d84" stroke="#104d84" stroke-width="1.51"/><path d="M3303,580L3461,439L3312,437Z" fill="#1c5d9c" stroke="#1c5d9c" stroke-width="1.51"/><path d="M3336,151L3439,118L3271,-40Z" fill="#135089" stroke="#135089" stroke-width="1.51"/><path d="M3471,631L3461,439L3303,580Z" fill="#1e61a0" stroke="#1e61a0" stroke-width="1.51"/><path d="M864,466L844,620L987,482Z" fill="#14518c" stroke="#14518c" stroke-width="1.51"/><path d="M3465,291L3336,151L3290,280Z" fill="#175691" stroke="#175691" stroke-width="1.51"/><path d="M3461,439L3465,291L3312,437Z" fill="#1a5a97" stroke="#1a5a97" stroke-width="1.51"/><path d="M872,-17L842,122L1007,13Z" fill="#094176" stroke="#094176" stroke-width="1.51"/><path d="M864,466L671,482L844,620Z" fill="#14518b" stroke="#14518b" stroke-width="1.51"/><path d="M986,-131L872,-17L1007,13Z" fill="#084074" stroke="#084074" stroke-width="1.51"/><path d="M842,122L812,292L983,288Z" fill="#0e477e" stroke="#0e477e" stroke-width="1.51"/><path d="M3453,748L3471,631L3303,580Z" fill="#1f63a3" stroke="#1f63a3" stroke-width="1.51"/><path d="M3461,439L3618,305L3465,291Z" fill="#1a5a96" stroke="#1a5a96" stroke-width="1.51"/><path d="M3277,746L3453,748L3303,580Z" fill="#1f62a2" stroke="#1f62a2" stroke-width="1.51"/><path d="M2837,794L3453,748L3277,746Z" fill="#1f61a1" stroke="#1f61a1" stroke-width="1.51"/><path d="M692,749L827,785L844,620Z" fill="#165490" stroke="#165490" stroke-width="1.51"/><path d="M844,620L827,785L1000,755Z" fill="#175591" stroke="#175591" stroke-width="1.51"/><path d="M1000,755L827,785L1163,772Z" fill="#175591" stroke="#175591" stroke-width="1.51"/><path d="M1163,772L827,785L1617,794Z" fill="#185793" stroke="#185793" stroke-width="1.51"/><path d="M3439,118L3477,20L3271,-40Z" fill="#124f87" stroke="#124f87" stroke-width="1.51"/><path d="M3633,145L3477,20L3439,118Z" fill="#14528b" stroke="#14528b" stroke-width="1.51"/><path d="M3633,145L3439,118L3465,291Z" fill="#165590" stroke="#165590" stroke-width="1.51"/><path d="M986,-131L828,-130L872,-17Z" fill="#074074" stroke="#074074" stroke-width="1.51"/><path d="M872,-17L718,-30L842,122Z" fill="#084074" stroke="#084074" stroke-width="1.51"/><path d="M660,331L671,482L812,292Z" fill="#104b83" stroke="#104b83" stroke-width="1.51"/><path d="M1132,-155L828,-130L986,-131Z" fill="#084074" stroke="#084074" stroke-width="1.51"/><path d="M677,-153L828,-130L1132,-155Z" fill="#074074" stroke="#074074" stroke-width="1.51"/><path d="M3477,20L3465,-171L3271,-40Z" fill="#114e86" stroke="#114e86" stroke-width="1.51"/><path d="M3609,595L3614,468L3461,439Z" fill="#1e5f9f" stroke="#1e5f9f" stroke-width="1.51"/><path d="M3477,20L3620,-33L3465,-171Z" fill="#114f87" stroke="#114f87" stroke-width="1.51"/><path d="M3609,595L3461,439L3471,631Z" fill="#1f62a1" stroke="#1f62a1" stroke-width="1.51"/><path d="M660,331L812,292L667,123Z" fill="#0e477d" stroke="#0e477d" stroke-width="1.51"/><path d="M812,292L671,482L864,466Z" fill="#114d85" stroke="#114d85" stroke-width="1.51"/><path d="M3614,468L3618,305L3461,439Z" fill="#1b5c99" stroke="#1b5c99" stroke-width="1.51"/><path d="M3607,757L3609,595L3471,631Z" fill="#2064a4" stroke="#2064a4" stroke-width="1.51"/><path d="M671,482L681,621L844,620Z" fill="#15538e" stroke="#15538e" stroke-width="1.51"/><path d="M828,-130L718,-30L872,-17Z" fill="#074073" stroke="#074073" stroke-width="1.51"/><path d="M667,123L812,292L842,122Z" fill="#0c457b" stroke="#0c457b" stroke-width="1.51"/><path d="M671,482L568,586L681,621Z" fill="#15528d" stroke="#15528d" stroke-width="1.51"/><path d="M681,621L692,749L844,620Z" fill="#165490" stroke="#165490" stroke-width="1.51"/><path d="M718,-30L667,123L842,122Z" fill="#094176" stroke="#094176" stroke-width="1.51"/><path d="M3757,446L3618,305L3614,468Z" fill="#1c5d9b" stroke="#1c5d9b" stroke-width="1.51"/><path d="M3751,169L3633,145L3618,305Z" fill="#185692" stroke="#185692" stroke-width="1.51"/><path d="M3618,305L3633,145L3465,291Z" fill="#185792" stroke="#185792" stroke-width="1.51"/><path d="M3453,748L3607,757L3471,631Z" fill="#2064a4" stroke="#2064a4" stroke-width="1.51"/><path d="M3784,587L3757,446L3614,468Z" fill="#1e60a0" stroke="#1e60a0" stroke-width="1.51"/><path d="M2837,794L3607,757L3453,748Z" fill="#1f62a2" stroke="#1f62a2" stroke-width="1.51"/><path d="M3633,145L3620,-33L3477,20Z" fill="#135089" stroke="#135089" stroke-width="1.51"/><path d="M828,-130L677,-153L718,-30Z" fill="#073f73" stroke="#073f73" stroke-width="1.51"/><path d="M568,20L559,112L667,123Z" fill="#084175" stroke="#084175" stroke-width="1.51"/><path d="M561,-185L677,-153L1132,-155Z" fill="#073f73" stroke="#073f73" stroke-width="1.51"/><path d="M681,621L568,586L692,749Z" fill="#16548f" stroke="#16548f" stroke-width="1.51"/><path d="M513,455L568,586L671,482Z" fill="#134f89" stroke="#134f89" stroke-width="1.51"/><path d="M513,455L671,482L660,331Z" fill="#114c85" stroke="#114c85" stroke-width="1.51"/><path d="M555,296L660,331L667,123Z" fill="#0d477d" stroke="#0d477d" stroke-width="1.51"/><path d="M559,112L555,296L667,123Z" fill="#0b447a" stroke="#0b447a" stroke-width="1.51"/><path d="M3736,-35L3637,-182L3620,-33Z" fill="#135088" stroke="#135088" stroke-width="1.51"/><path d="M3620,-33L3637,-182L3465,-171Z" fill="#124f87" stroke="#124f87" stroke-width="1.51"/><path d="M3465,-171L3637,-182L3319,-185Z" fill="#114e86" stroke="#114e86" stroke-width="1.51"/><path d="M3319,-185L3754,-193L3146,-195Z" fill="#114e86" stroke="#114e86" stroke-width="1.51"/><path d="M568,20L667,123L718,-30Z" fill="#074074" stroke="#074074" stroke-width="1.51"/><path d="M3784,587L3614,468L3609,595Z" fill="#1f63a2" stroke="#1f63a2" stroke-width="1.51"/><path d="M3633,145L3736,-35L3620,-33Z" fill="#13518a" stroke="#13518a" stroke-width="1.51"/><path d="M677,-153L568,20L718,-30Z" fill="#063f72" stroke="#063f72" stroke-width="1.51"/><path d="M3781,315L3751,169L3618,305Z" fill="#195894" stroke="#195894" stroke-width="1.51"/><path d="M513,455L555,296L386,279Z" fill="#0f4a80" stroke="#0f4a80" stroke-width="1.51"/><path d="M387,460L513,455L386,279Z" fill="#0f4b82" stroke="#0f4b82" stroke-width="1.51"/><path d="M555,296L513,455L660,331Z" fill="#0f4a81" stroke="#0f4a81" stroke-width="1.51"/><path d="M3757,446L3781,315L3618,305Z" fill="#1b5b98" stroke="#1b5b98" stroke-width="1.51"/><path d="M3754,-193L3736,-35L3914,-174Z" fill="#135089" stroke="#135089" stroke-width="1.51"/><path d="M3751,169L3736,-35L3633,145Z" fill="#15538d" stroke="#15538d" stroke-width="1.51"/><path d="M3607,757L3755,731L3609,595Z" fill="#2064a5" stroke="#2064a5" stroke-width="1.51"/><path d="M3757,446L3884,467L3781,315Z" fill="#1c5e9c" stroke="#1c5e9c" stroke-width="1.51"/><path d="M3755,731L3784,587L3609,595Z" fill="#2165a6" stroke="#2165a6" stroke-width="1.51"/><path d="M394,579L537,787L568,586Z" fill="#15538e" stroke="#15538e" stroke-width="1.51"/><path d="M568,586L537,787L692,749Z" fill="#16548e" stroke="#16548e" stroke-width="1.51"/><path d="M692,749L537,787L827,785Z" fill="#16548f" stroke="#16548f" stroke-width="1.51"/><path d="M827,785L258,793L1617,794Z" fill="#175591" stroke="#175591" stroke-width="1.51"/><path d="M386,279L555,296L559,112Z" fill="#0c467b" stroke="#0c467b" stroke-width="1.51"/><path d="M677,-153L561,-185L568,20Z" fill="#063f71" stroke="#063f71" stroke-width="1.51"/><path d="M1492,-194L561,-185L1132,-155Z" fill="#084175" stroke="#084175" stroke-width="1.51"/><path d="M3736,-35L3754,-193L3637,-182Z" fill="#135088" stroke="#135088" stroke-width="1.51"/><path d="M3637,-182L3754,-193L3319,-185Z" fill="#124f87" stroke="#124f87" stroke-width="1.51"/><path d="M3917,133L3736,-35L3751,169Z" fill="#15538e" stroke="#15538e" stroke-width="1.51"/><path d="M3781,315L3915,302L3751,169Z" fill="#195995" stroke="#195995" stroke-width="1.51"/><path d="M3784,587L3884,467L3757,446Z" fill="#1f61a1" stroke="#1f61a1" stroke-width="1.51"/><path d="M3894,590L3884,467L3784,587Z" fill="#2063a4" stroke="#2063a4" stroke-width="1.51"/><path d="M513,455L394,579L568,586Z" fill="#14518a" stroke="#14518a" stroke-width="1.51"/><path d="M386,279L559,112L361,177Z" fill="#0b4479" stroke="#0b4479" stroke-width="1.51"/><path d="M413,-21L559,112L568,20Z" fill="#073f73" stroke="#073f73" stroke-width="1.51"/><path d="M387,460L394,579L513,455Z" fill="#124e87" stroke="#124e87" stroke-width="1.51"/><path d="M3908,726L3894,590L3784,587Z" fill="#2166a7" stroke="#2166a7" stroke-width="1.51"/><path d="M4058,430L3915,302L3884,467Z" fill="#1c5e9c" stroke="#1c5e9c" stroke-width="1.51"/><path d="M3884,467L3915,302L3781,315Z" fill="#1b5d9a" stroke="#1b5d9a" stroke-width="1.51"/><path d="M561,-185L413,-21L568,20Z" fill="#063e71" stroke="#063e71" stroke-width="1.51"/><path d="M253,581L399,782L394,579Z" fill="#15528c" stroke="#15528c" stroke-width="1.51"/><path d="M394,579L399,782L537,787Z" fill="#15538d" stroke="#15538d" stroke-width="1.51"/><path d="M3915,302L3917,133L3751,169Z" fill="#185793" stroke="#185793" stroke-width="1.51"/><path d="M413,-21L361,177L559,112Z" fill="#084075" stroke="#084075" stroke-width="1.51"/><path d="M386,279L256,300L387,460Z" fill="#0e497f" stroke="#0e497f" stroke-width="1.51"/><path d="M387,460L254,487L394,579Z" fill="#124e87" stroke="#124e87" stroke-width="1.51"/><path d="M3755,731L3908,726L3784,587Z" fill="#2166a7" stroke="#2166a7" stroke-width="1.51"/><path d="M3894,590L4058,430L3884,467Z" fill="#1e61a1" stroke="#1e61a1" stroke-width="1.51"/><path d="M4083,776L3908,726L3755,731Z" fill="#2166a7" stroke="#2166a7" stroke-width="1.51"/><path d="M3917,133L3914,-31L3736,-35Z" fill="#14518a" stroke="#14518a" stroke-width="1.51"/><path d="M413,-21L228,3L361,177Z" fill="#073f72" stroke="#073f72" stroke-width="1.51"/><path d="M561,-185L369,-148L413,-21Z" fill="#053e70" stroke="#053e70" stroke-width="1.51"/><path d="M3914,-31L3914,-174L3736,-35Z" fill="#135189" stroke="#135189" stroke-width="1.51"/><path d="M4048,-37L3914,-174L3914,-31Z" fill="#135189" stroke="#135189" stroke-width="1.51"/><path d="M198,112L256,300L361,177Z" fill="#0a4378" stroke="#0a4378" stroke-width="1.51"/><path d="M361,177L256,300L386,279Z" fill="#0c457a" stroke="#0c457a" stroke-width="1.51"/><path d="M256,300L254,487L387,460Z" fill="#0f4b82" stroke="#0f4b82" stroke-width="1.51"/><path d="M254,487L253,581L394,579Z" fill="#135089" stroke="#135089" stroke-width="1.51"/><path d="M3917,133L4048,-37L3914,-31Z" fill="#14518a" stroke="#14518a" stroke-width="1.51"/><path d="M3915,302L4076,287L3917,133Z" fill="#195995" stroke="#195995" stroke-width="1.51"/><path d="M4095,619L4058,430L3894,590Z" fill="#2063a4" stroke="#2063a4" stroke-width="1.51"/><path d="M253,581L258,793L399,782Z" fill="#14528c" stroke="#14528c" stroke-width="1.51"/><path d="M399,782L258,793L537,787Z" fill="#15538d" stroke="#15538d" stroke-width="1.51"/><path d="M537,787L258,793L827,785Z" fill="#15538e" stroke="#15538e" stroke-width="1.51"/><path d="M1617,794L258,793L1949,795Z" fill="#185793" stroke="#185793" stroke-width="1.51"/><path d="M4058,430L4076,287L3915,302Z" fill="#1b5c99" stroke="#1b5c99" stroke-width="1.51"/><path d="M4083,148L4048,-37L3917,133Z" fill="#15538e" stroke="#15538e" stroke-width="1.51"/><path d="M256,300L75,328L254,487Z" fill="#0e497f" stroke="#0e497f" stroke-width="1.51"/><path d="M254,487L66,472L253,581Z" fill="#114e86" stroke="#114e86" stroke-width="1.51"/><path d="M253,581L88,749L258,793Z" fill="#14528b" stroke="#14528b" stroke-width="1.51"/><path d="M369,-148L228,3L413,-21Z" fill="#053d6f" stroke="#053d6f" stroke-width="1.51"/><path d="M4076,287L4083,148L3917,133Z" fill="#185793" stroke="#185793" stroke-width="1.51"/><path d="M228,3L198,112L361,177Z" fill="#074074" stroke="#074074" stroke-width="1.51"/><path d="M4225,129L4202,5L4083,148Z" fill="#16548e" stroke="#16548e" stroke-width="1.51"/><path d="M4058,430L4247,314L4076,287Z" fill="#1b5c99" stroke="#1b5c99" stroke-width="1.51"/><path d="M3908,726L4095,619L3894,590Z" fill="#2166a7" stroke="#2166a7" stroke-width="1.51"/><path d="M3908,726L4083,776L4095,619Z" fill="#2166a7" stroke="#2166a7" stroke-width="1.51"/><path d="M3607,757L4083,776L3755,731Z" fill="#2166a7" stroke="#2166a7" stroke-width="1.51"/><path d="M2837,794L4083,776L3607,757Z" fill="#2063a4" stroke="#2063a4" stroke-width="1.51"/><path d="M54,152L256,300L198,112Z" fill="#094377" stroke="#094377" stroke-width="1.51"/><path d="M369,-148L247,-194L228,3Z" fill="#053d6f" stroke="#053d6f" stroke-width="1.51"/><path d="M561,-185L247,-194L369,-148Z" fill="#053e70" stroke="#053e70" stroke-width="1.51"/><path d="M1492,-194L247,-194L561,-185Z" fill="#073f73" stroke="#073f73" stroke-width="1.51"/><path d="M3146,-195L247,-194L1492,-194Z" fill="#0a4478" stroke="#0a4478" stroke-width="1.51"/><path d="M4219,-137L4057,-188L4048,-37Z" fill="#135189" stroke="#135189" stroke-width="1.51"/><path d="M4048,-37L4057,-188L3914,-174Z" fill="#135189" stroke="#135189" stroke-width="1.51"/><path d="M3914,-174L4057,-188L3754,-193Z" fill="#135189" stroke="#135189" stroke-width="1.51"/><path d="M54,152L198,112L74,-41Z" fill="#063e71" stroke="#063e71" stroke-width="1.51"/><path d="M54,152L75,328L256,300Z" fill="#0b4579" stroke="#0b4579" stroke-width="1.51"/><path d="M4083,148L4202,5L4048,-37Z" fill="#14528c" stroke="#14528c" stroke-width="1.51"/><path d="M4095,619L4226,487L4058,430Z" fill="#1f62a2" stroke="#1f62a2" stroke-width="1.51"/><path d="M4083,776L4198,622L4095,619Z" fill="#2166a7" stroke="#2166a7" stroke-width="1.51"/><path d="M75,328L66,472L254,487Z" fill="#0f4a81" stroke="#0f4a81" stroke-width="1.51"/><path d="M4198,622L4226,487L4095,619Z" fill="#2065a5" stroke="#2065a5" stroke-width="1.51"/><path d="M44,579L88,749L253,581Z" fill="#14518a" stroke="#14518a" stroke-width="1.51"/><path d="M4225,129L4083,148L4076,287Z" fill="#185793" stroke="#185793" stroke-width="1.51"/><path d="M4247,314L4225,129L4076,287Z" fill="#195995" stroke="#195995" stroke-width="1.51"/><path d="M-94,464L44,579L66,472Z" fill="#104d84" stroke="#104d84" stroke-width="1.51"/><path d="M74,-41L198,112L228,3Z" fill="#053d6f" stroke="#053d6f" stroke-width="1.51"/><path d="M4226,487L4247,314L4058,430Z" fill="#1c5e9c" stroke="#1c5e9c" stroke-width="1.51"/><path d="M66,472L44,579L253,581Z" fill="#124f88" stroke="#124f88" stroke-width="1.51"/><path d="M-46,757L44,579L-100,592Z" fill="#135189" stroke="#135189" stroke-width="1.51"/><path d="M247,-194L74,-41L228,3Z" fill="#043d6e" stroke="#043d6e" stroke-width="1.51"/><path d="M4083,776L4247,729L4198,622Z" fill="#2166a7" stroke="#2166a7" stroke-width="1.51"/><path d="M4198,622L4247,729L4226,487Z" fill="#2166a7" stroke="#2166a7" stroke-width="1.51"/><path d="M4226,487L4247,729L4247,314Z" fill="#1f62a2" stroke="#1f62a2" stroke-width="1.51"/><path d="M4202,5L4219,-137L4048,-37Z" fill="#135189" stroke="#135189" stroke-width="1.51"/><path d="M4225,129L4219,-137L4202,5Z" fill="#135189" stroke="#135189" stroke-width="1.51"/><path d="M4247,314L4219,-137L4225,129Z" fill="#16548f" stroke="#16548f" stroke-width="1.51"/><path d="M247,-194L42,-191L74,-41Z" fill="#043c6e" stroke="#043c6e" stroke-width="1.51"/><path d="M-83,170L-77,309L54,152Z" fill="#094276" stroke="#094276" stroke-width="1.51"/><path d="M-94,464L66,472L75,328Z" fill="#0e4980" stroke="#0e4980" stroke-width="1.51"/><path d="M44,579L-46,757L88,749Z" fill="#135189" stroke="#135189" stroke-width="1.51"/><path d="M88,749L-46,757L258,793Z" fill="#14518a" stroke="#14518a" stroke-width="1.51"/><path d="M-77,309L75,328L54,152Z" fill="#0a4478" stroke="#0a4478" stroke-width="1.51"/><path d="M-46,-8L54,152L74,-41Z" fill="#053d6e" stroke="#053d6e" stroke-width="1.51"/><path d="M42,-191L-46,-8L74,-41Z" fill="#043c6d" stroke="#043c6d" stroke-width="1.51"/><path d="M-46,-8L-83,170L54,152Z" fill="#063f72" stroke="#063f72" stroke-width="1.51"/><path d="M-201,310L-94,464L-77,309Z" fill="#0d487d" stroke="#0d487d" stroke-width="1.51"/><path d="M-77,309L-94,464L75,328Z" fill="#0d487d" stroke="#0d487d" stroke-width="1.51"/><path d="M-94,464L-100,592L44,579Z" fill="#114e87" stroke="#114e87" stroke-width="1.51"/><path d="M-230,437L-100,592L-94,464Z" fill="#104c84" stroke="#104c84" stroke-width="1.51"/><path d="M-83,170L-201,310L-77,309Z" fill="#0a4478" stroke="#0a4478" stroke-width="1.51"/><path d="M-46,-8L-200,128L-83,170Z" fill="#063f72" stroke="#063f72" stroke-width="1.51"/><path d="M42,-191L-105,-185L-46,-8Z" fill="#043c6d" stroke="#043c6d" stroke-width="1.51"/><path d="M-200,128L-201,310L-83,170Z" fill="#094276" stroke="#094276" stroke-width="1.51"/><path d="M-100,592L-210,786L-46,757Z" fill="#135189" stroke="#135189" stroke-width="1.51"/><path d="M-239,1L-200,128L-46,-8Z" fill="#053d6f" stroke="#053d6f" stroke-width="1.51"/><path d="M-239,1L-230,437L-201,310Z" fill="#0a4478" stroke="#0a4478" stroke-width="1.51"/><path d="M-201,310L-230,437L-94,464Z" fill="#0e497f" stroke="#0e497f" stroke-width="1.51"/><path d="M-250,598L-210,786L-100,592Z" fill="#135189" stroke="#135189" stroke-width="1.51"/><path d="M-46,757L-210,786L258,793Z" fill="#135189" stroke="#135189" stroke-width="1.51"/><path d="M-230,437L-250,598L-100,592Z" fill="#114e86" stroke="#114e86" stroke-width="1.51"/><path d="M-239,1L-250,598L-230,437Z" fill="#0d477c" stroke="#0d477c" stroke-width="1.51"/><path d="M-200,128L-239,1L-201,310Z" fill="#084074" stroke="#084074" stroke-width="1.51"/><path d="M-105,-185L-239,1L-46,-8Z" fill="#043c6d" stroke="#043c6d" stroke-width="1.51"/><path d="M-105,-185L-211,-178L-239,1Z" fill="#043c6d" stroke="#043c6d" stroke-width="1.51"/></svg>